<svg xmlns="http://www.w3.org/2000/svg" width="32" height="32"><path fill="#666D89" d="M29.396 2.58C27.75.938 25.585 0 23.449 0c-1.8 0-3.459.668-4.669 1.877l-4.867 4.904c-.015.014-.032.024-.047.038-.008.008-.012.019-.02.027l.002.002-10.33 10.408a4.013 4.013 0 00-1.013 1.705L.156 27.469C.153 27.492 0 28.161 0 28.5 0 30.433 1.569 32 3.505 32c.385 0 1.13-.183 1.157-.187l8.478-2.229a4.027 4.027 0 001.705-1.016l15.262-15.382c2.777-2.78 2.464-7.436-.711-10.606zM16.015 23.796a8.144 8.144 0 00-.719-2.628l9.454-9.453c.578 1.826.282 3.736-.985 5.004-.008.008-.018.012-.026.02l.013.013-7.728 7.789c.001-.248.013-.492-.009-.745zm-1.221-3.54c-.373-.613-.797-1.204-1.322-1.728-.612-.612-1.313-1.09-2.044-1.493l9.532-9.531a6.965 6.965 0 012.098 1.437 6.99 6.99 0 011.28 1.771l-9.544 9.544zm-4.308-3.693a7.972 7.972 0 00-2.868-.599l7.703-7.762c1.179-1.15 2.897-1.481 4.588-1.061l-9.423 9.422zm-6.318 13.31c-.109.026-.448.112-.679.127A1.505 1.505 0 012 28.5c.012-.167.079-.456.102-.563l1.052-3.814c1.143-.031 2.373.414 3.34 1.383.983.981 1.445 2.235 1.394 3.391l-3.72.976zm4.706-1.236c-.024-1.341-.57-2.737-1.672-3.837-1.042-1.044-2.405-1.646-3.765-1.699l.996-3.608c.072-.24.214-.476.39-.684 2.006-1.436 5.091-1.012 7.235 1.133 2.266 2.266 2.617 5.586.871 7.568-.116.06-.234.119-.36.157l-3.695.97zm19.818-16.864l-1.684 1.697c0-.226.027-.443.007-.674-.176-1.935-1.079-3.806-2.543-5.269-1.629-1.629-3.79-2.565-5.929-2.571l1.657-1.67C21.027 2.459 22.184 2 23.449 2c1.611 0 3.263.728 4.533 1.995 1.194 1.191 1.906 2.671 2.006 4.168.094 1.398-.366 2.679-1.296 3.61z"/></svg>