<svg xmlns="http://www.w3.org/2000/svg" width="32" height="28"><path fill-rule="evenodd" fill="#666D89" d="M29.192 16.192l-11.053 10.93a3.048 3.048 0 01-4.278 0L2.808 16.192a9.403 9.403 0 010-13.4C6.439-.799 12.24-.874 16 2.505c3.761-3.379 9.562-3.304 13.192.287a9.403 9.403 0 010 13.4zm-1.427-11.99c-2.842-2.812-7.416-2.911-10.409-.222L16 5.199 14.644 3.98c-2.993-2.689-7.565-2.59-10.409.222a7.43 7.43 0 000 10.579l11.053 10.93a1.016 1.016 0 001.425 0l11.052-10.93a7.427 7.427 0 000-10.579zM9.252 6.025h-.001A3.248 3.248 0 006.002 9.27v.001a.5.5 0 01-1 0 4.247 4.247 0 014.246-4.244l.004-.001a.5.5 0 010 .999z"/></svg>