<svg xmlns="http://www.w3.org/2000/svg" width="22" height="32"><path fill-rule="evenodd" fill="#666D89" d="M16.969 23.078C14.965 28.666 15.25 32 11 32c-4.187 0-3.966-3.349-5.969-8.945C3.689 19.303 0 15.031 0 11 0 4.925 4.925 0 11 0s11 4.925 11 11c0 4-3.684 8.319-5.031 12.078zM11 30c1.181 0 1.628-.127 2.241-1.78l-4.238.53C9.521 29.884 9.987 30 11 30zm-2.964-4.097c.231.781.421 1.38.598 1.893l4.959-.62c.11-.355.228-.745.359-1.194.081-.278.176-.588.264-.884l-6.189.773.009.032zm-.3-.995l6.799-.849c.107-.34.23-.699.352-1.059H7.121c.229.672.434 1.307.615 1.908zM11 2c-4.963 0-9 4.037-9 9 0 2.033 1.349 4.448 2.653 6.783.59 1.057 1.188 2.138 1.686 3.217h9.333c.495-1.074 1.088-2.151 1.673-3.205C18.65 15.446 20 13.018 20 11c0-4.963-4.037-9-9-9zm0 4c-2.757 0-5 2.243-5 5a.5.5 0 01-1 0c0-3.309 2.691-6 6-6a.5.5 0 010 1z"/></svg>