<svg xmlns="http://www.w3.org/2000/svg" width="32" height="31"><path fill-rule="evenodd" fill="#666D89" d="M31.881 11.557a2.303 2.303 0 00-1.843-1.511l-8.326-1.238-3.62-7.514A2.317 2.317 0 0016 0c-.896 0-1.711.505-2.092 1.294l-3.619 7.514-8.327 1.238A2.297 2.297 0 00.12 11.557c-.276.8-.068 1.682.537 2.285l6.102 6.093-1.415 8.451c-.144.85.225 1.705.948 2.203a2.358 2.358 0 002.449.131L16 26.812l7.26 3.908a2.366 2.366 0 002.449-.131 2.228 2.228 0 00.948-2.203l-1.416-8.451 6.103-6.093a2.21 2.21 0 00.537-2.285zm-8.293 6.806a2.213 2.213 0 00-.626 1.934l1.415 8.452-7.259-3.907a2.354 2.354 0 00-2.235 0l-7.26 3.907 1.416-8.452a2.213 2.213 0 00-.626-1.934l-6.102-6.091 8.326-1.241a2.308 2.308 0 001.744-1.267L16 2.251l3.62 7.513a2.303 2.303 0 001.742 1.267l8.327 1.241-6.101 6.091z"/></svg>